<mxfile host="Electron" agent="Mozilla/5.0 (X11; Linux x86_64) AppleWebKit/537.36 (KHTML, like Gecko) draw.io/24.7.17 Chrome/128.0.6613.186 Electron/32.2.1 Safari/537.36" version="24.7.17">
  <diagram name="Page-1" id="kuxGt-2jCfrgJw1pwiJs">
    <mxGraphModel dx="1434" dy="875" grid="1" gridSize="10" guides="1" tooltips="1" connect="1" arrows="1" fold="1" page="1" pageScale="1" pageWidth="827" pageHeight="1169" math="0" shadow="0">
      <root>
        <mxCell id="0" />
        <mxCell id="1" parent="0" />
        <mxCell id="8Ok210YKob_pviOPnSTm-9" value="" style="endArrow=classic;startArrow=classic;html=1;rounded=0;fontColor=#007FFF;strokeColor=#007FFF;" parent="1" edge="1">
          <mxGeometry width="50" height="50" relative="1" as="geometry">
            <mxPoint x="520" y="520" as="sourcePoint" />
            <mxPoint x="520" y="240" as="targetPoint" />
          </mxGeometry>
        </mxCell>
        <mxCell id="8Ok210YKob_pviOPnSTm-10" value="" style="endArrow=classic;startArrow=classic;html=1;rounded=0;fontColor=#007FFF;strokeColor=#007FFF;" parent="1" edge="1">
          <mxGeometry width="50" height="50" relative="1" as="geometry">
            <mxPoint x="180" y="280" as="sourcePoint" />
            <mxPoint x="180" y="240" as="targetPoint" />
          </mxGeometry>
        </mxCell>
        <mxCell id="8Ok210YKob_pviOPnSTm-13" value="" style="endArrow=classic;startArrow=classic;html=1;rounded=0;fontColor=#007FFF;strokeColor=#007FFF;" parent="1" edge="1">
          <mxGeometry width="50" height="50" relative="1" as="geometry">
            <mxPoint x="200" y="540" as="sourcePoint" />
            <mxPoint x="480" y="540" as="targetPoint" />
          </mxGeometry>
        </mxCell>
        <mxCell id="8Ok210YKob_pviOPnSTm-14" value="y" style="text;html=1;align=center;verticalAlign=middle;whiteSpace=wrap;rounded=0;fontColor=#007FFF;" parent="1" vertex="1">
          <mxGeometry x="510" y="370" width="60" height="30" as="geometry" />
        </mxCell>
        <mxCell id="8Ok210YKob_pviOPnSTm-19" value="x" style="text;html=1;align=center;verticalAlign=middle;whiteSpace=wrap;rounded=0;fontColor=#007FFF;" parent="1" vertex="1">
          <mxGeometry x="290" y="550" width="60" height="30" as="geometry" />
        </mxCell>
        <mxCell id="8Ok210YKob_pviOPnSTm-20" value="roundness" style="text;html=1;align=center;verticalAlign=middle;whiteSpace=wrap;rounded=0;fontColor=#007FFF;" parent="1" vertex="1">
          <mxGeometry x="110" y="240" width="60" height="30" as="geometry" />
        </mxCell>
        <mxCell id="s-n0Uo4-dYcPovsnEo_s-1" value="" style="rounded=1;whiteSpace=wrap;html=1;glass=0;shadow=1;gradientColor=none;fillColor=none;" vertex="1" parent="1">
          <mxGeometry x="200" y="240" width="280" height="280" as="geometry" />
        </mxCell>
        <mxCell id="s-n0Uo4-dYcPovsnEo_s-2" value="" style="endArrow=classic;startArrow=classic;html=1;rounded=0;fontColor=#007FFF;strokeColor=#007FFF;" edge="1" parent="1">
          <mxGeometry width="50" height="50" relative="1" as="geometry">
            <mxPoint x="200" y="220" as="sourcePoint" />
            <mxPoint x="240" y="220" as="targetPoint" />
          </mxGeometry>
        </mxCell>
        <mxCell id="s-n0Uo4-dYcPovsnEo_s-3" value="roundness" style="text;html=1;align=center;verticalAlign=middle;whiteSpace=wrap;rounded=0;fontColor=#007FFF;" vertex="1" parent="1">
          <mxGeometry x="190" y="180" width="60" height="30" as="geometry" />
        </mxCell>
      </root>
    </mxGraphModel>
  </diagram>
</mxfile>
